<svg xmlns="http://www.w3.org/2000/svg" viewBox="0 0 360 104" width="360" height="104" role="img" aria-label="25 EXPERTS">
<title>25 EXPERTS</title><rect width="359.75600000000003" height="104" fill="#0B1F26"/>
<circle cx="24.00" cy="24.00" r="2.40" fill="#FBFAF6"/>
<circle cx="32.00" cy="24.00" r="2.40" fill="#FBFAF6"/>
<circle cx="40.00" cy="24.00" r="2.40" fill="#FBFAF6"/>
<circle cx="48.00" cy="24.00" r="2.40" fill="#FBFAF6"/>
<circle cx="56.00" cy="24.00" r="2.40" fill="#FBFAF6"/>
<circle cx="24.00" cy="32.00" r="2.40" fill="#FBFAF6"/>
<circle cx="32.00" cy="32.00" r="2.40" fill="#FBFAF6"/>
<circle cx="40.00" cy="32.00" r="2.40" fill="#FBFAF6"/>
<circle cx="48.00" cy="32.00" r="2.40" fill="#FBFAF6"/>
<circle cx="56.00" cy="32.00" r="2.40" fill="#FBFAF6"/>
<circle cx="24.00" cy="40.00" r="2.40" fill="#FBFAF6"/>
<circle cx="32.00" cy="40.00" r="2.40" fill="#FBFAF6"/>
<circle cx="40.00" cy="40.00" r="2.40" fill="#FBFAF6"/>
<rect x="44.64" y="36.64" width="6.72" height="6.72" rx="0.96" fill="#F5A26B"/>
<circle cx="56.00" cy="40.00" r="2.40" fill="#FBFAF6"/>
<circle cx="24.00" cy="48.00" r="2.40" fill="#FBFAF6"/>
<circle cx="32.00" cy="48.00" r="2.40" fill="#FBFAF6"/>
<circle cx="40.00" cy="48.00" r="2.40" fill="#FBFAF6"/>
<circle cx="48.00" cy="48.00" r="2.40" fill="#FBFAF6"/>
<circle cx="56.00" cy="48.00" r="2.40" fill="#FBFAF6"/>
<circle cx="24.00" cy="56.00" r="2.40" fill="#FBFAF6"/>
<circle cx="32.00" cy="56.00" r="2.40" fill="#FBFAF6"/>
<circle cx="40.00" cy="56.00" r="2.40" fill="#FBFAF6"/>
<circle cx="48.00" cy="56.00" r="2.40" fill="#FBFAF6"/>
<circle cx="56.00" cy="56.00" r="2.40" fill="#FBFAF6"/>
<path fill="#FBFAF6" d="M79.848 56.0V50.72L88.648 41.656Q91.244 38.972 92.586 37.41Q93.928 35.848 94.434 34.792Q94.94 33.736000000000004 94.94 32.724000000000004Q94.94 30.92 93.774 29.886000000000003Q92.608 28.852 90.848 28.852Q89.044 28.852 87.636 29.886000000000003Q86.228 30.92 85.568 33.032L79.628 31.096Q80.156 28.544 81.828 26.652Q83.5 24.76 85.876 23.726Q88.252 22.692 90.848 22.692Q94.104 22.692 96.568 23.836Q99.032 24.98 100.39599999999999 27.048000000000002Q101.75999999999999 29.116000000000003 101.75999999999999 31.888Q101.75999999999999 33.647999999999996 101.14399999999999 35.342Q100.52799999999999 37.036 99.274 38.774Q98.02 40.512 96.03999999999999 42.536L88.516 50.28H102.068V56.0Z M116.324 56.528Q113.728 56.528 111.30799999999999 55.538Q108.88799999999999 54.548 107.172 52.722Q105.45599999999999 50.896 104.928 48.344L110.95599999999999 46.32Q111.616 48.432 113.068 49.400000000000006Q114.52 50.368 116.324 50.368Q117.86399999999999 50.368 119.00799999999998 49.730000000000004Q120.15199999999999 49.092 120.78999999999999 47.926Q121.428 46.76 121.428 45.22Q121.428 43.68 120.78999999999999 42.536Q120.15199999999999 41.392 119.00799999999998 40.754000000000005Q117.86399999999999 40.116 116.324 40.116Q114.74 40.116 113.508 40.798Q112.276 41.480000000000004 111.704 42.888L106.116 41.568L108.756 23.22H127.05999999999999V28.94H111.52799999999999L114.08 25.860000000000003L112.276 39.5L110.428 37.872Q111.52799999999999 36.068 113.222 35.232Q114.916 34.396 117.6 34.396Q120.89999999999999 34.396 123.27599999999998 35.782000000000004Q125.65199999999999 37.168000000000006 126.94999999999999 39.58800000000001Q128.248 42.008 128.248 45.22Q128.248 48.432 126.68599999999999 51.006Q125.124 53.58 122.44 55.054Q119.756 56.528 116.324 56.528Z"/>
<path fill="#FBFAF6" d="M142.328 56.0V23.22H164.108V28.5H148.31199999999998V36.903999999999996H163.228V42.184H148.31199999999998V50.72H164.108V56.0Z M167.144 56.0 177.88 39.5 167.232 23.22H174.096L182.808 36.552H179.64L188.308 23.22H195.172L184.56799999999998 39.5L195.26 56.0H188.396L179.64 42.492000000000004H182.808L174.008 56.0Z M200.232 56.0V23.22H212.464Q215.808 23.22 218.382 24.43Q220.956 25.64 222.408 27.950000000000003Q223.85999999999999 30.26 223.85999999999999 33.56Q223.85999999999999 36.816 222.38599999999997 39.126000000000005Q220.91199999999998 41.436 218.35999999999999 42.668Q215.808 43.9 212.464 43.9H206.21599999999998V56.0ZM206.21599999999998 38.620000000000005H212.552Q214.18 38.620000000000005 215.368 37.982Q216.55599999999998 37.344 217.21599999999998 36.2Q217.87599999999998 35.056 217.87599999999998 33.56Q217.87599999999998 32.02 217.21599999999998 30.898000000000003Q216.55599999999998 29.776 215.368 29.137999999999998Q214.18 28.5 212.552 28.5H206.21599999999998Z M230.064 56.0V23.22H251.844V28.5H236.04799999999997V36.903999999999996H250.964V42.184H236.04799999999997V50.72H251.844V56.0Z M257.56399999999996 56.0V23.22H269.752Q273.096 23.22 275.66999999999996 24.43Q278.24399999999997 25.64 279.69599999999997 27.950000000000003Q281.14799999999997 30.26 281.14799999999997 33.56Q281.14799999999997 36.948 279.542 39.324Q277.936 41.7 275.20799999999997 42.844L282.73199999999997 56.0H275.95599999999996L267.904 41.612L271.776 43.9H263.548V56.0ZM263.548 38.620000000000005H269.84Q271.46799999999996 38.620000000000005 272.65599999999995 37.982Q273.844 37.344 274.504 36.2Q275.164 35.056 275.164 33.56Q275.164 32.02 274.504 30.898000000000003Q273.844 29.776 272.65599999999995 29.137999999999998Q271.46799999999996 28.5 269.84 28.5H263.548Z M293.776 56.0V28.5H285.284V23.22H308.164V28.5H299.80400000000003V56.0Z M324.84000000000003 56.528Q321.716 56.528 319.054 55.384Q316.392 54.24 314.478 52.194Q312.564 50.148 311.684 47.42L316.656 45.264Q317.844 48.08 320.08799999999997 49.686Q322.332 51.292 325.148 51.292Q326.732 51.292 327.898 50.786Q329.064 50.28 329.702 49.400000000000006Q330.34000000000003 48.52 330.34000000000003 47.288Q330.34000000000003 45.836 329.482 44.89Q328.624 43.944 326.908 43.416L320.61600000000004 41.392Q316.788 40.204 314.852 37.828Q312.916 35.452 312.916 32.24Q312.916 29.424000000000003 314.302 27.268Q315.68800000000005 25.112000000000002 318.17400000000004 23.902Q320.66 22.692 323.872 22.692Q326.82 22.692 329.284 23.726Q331.748 24.76 333.53 26.586000000000002Q335.312 28.412000000000003 336.192 30.876L331.264 33.076Q330.296 30.612000000000002 328.36 29.270000000000003Q326.42400000000004 27.928 323.872 27.928Q322.37600000000003 27.928 321.232 28.434Q320.088 28.94 319.45000000000005 29.842Q318.812 30.744 318.812 31.976000000000003Q318.812 33.34 319.692 34.374Q320.572 35.408 322.37600000000003 35.980000000000004L328.404 37.872Q332.32 39.147999999999996 334.278 41.391999999999996Q336.236 43.636 336.236 46.936Q336.236 49.752 334.784 51.908Q333.332 54.064 330.78 55.296Q328.228 56.528 324.84000000000003 56.528Z"/>
<path fill="#FBFAF6" d="M79.155 84.0V72.825H86.52V74.4H80.925V77.61H86.22V79.185H80.925V82.425H86.52V84.0Z M88.005 84.0V75.885H89.7V84.0ZM88.005 74.775V72.825H89.7V74.775Z M91.67999999999999 84.0V75.885H93.3V77.475L93.105 77.265Q93.405 76.5 94.065 76.10249999999999Q94.725 75.705 95.595 75.705Q96.495 75.705 97.185 76.095Q97.875 76.485 98.265 77.175Q98.655 77.865 98.655 78.765V84.0H96.975V79.215Q96.975 78.6 96.75 78.1725Q96.52499999999999 77.745 96.1125 77.5125Q95.7 77.28 95.175 77.28Q94.64999999999999 77.28 94.2375 77.5125Q93.825 77.745 93.6 78.18Q93.375 78.615 93.375 79.215V84.0Z M104.27999999999999 84.18Q103.06499999999998 84.18 102.12749999999998 83.6175Q101.18999999999998 83.055 100.66499999999999 82.0875Q100.13999999999999 81.12 100.13999999999999 79.92Q100.13999999999999 78.69 100.67249999999999 77.745Q101.20499999999998 76.8 102.10499999999999 76.2525Q103.005 75.705 104.145 75.705Q105.05999999999999 75.705 105.77999999999999 76.02Q106.49999999999999 76.335 106.99499999999999 76.8825Q107.49 77.43 107.7525 78.135Q108.01499999999999 78.84 108.01499999999999 79.635Q108.01499999999999 79.83 107.99999999999999 80.03999999999999Q107.98499999999999 80.25 107.93999999999998 80.43H101.475V79.08H106.97999999999999L106.16999999999999 79.695Q106.32 78.96 106.07249999999999 78.3825Q105.82499999999999 77.805 105.32249999999999 77.4675Q104.82 77.13 104.145 77.13Q103.46999999999998 77.13 102.945 77.4675Q102.41999999999999 77.805 102.13499999999999 78.42750000000001Q101.85 79.05 101.91 79.935Q101.835 80.76 102.14249999999998 81.375Q102.44999999999999 81.99 103.01249999999999 82.33500000000001Q103.57499999999999 82.68 104.29499999999999 82.68Q105.02999999999999 82.68 105.54749999999999 82.35Q106.06499999999998 82.02 106.365 81.495L107.74499999999999 82.17Q107.505 82.74 107.0025 83.19749999999999Q106.49999999999999 83.655 105.80249999999998 83.9175Q105.10499999999999 84.18 104.27999999999999 84.18Z M109.66499999999998 84.0V75.885H111.28499999999998V77.52L111.13499999999998 77.28Q111.40499999999999 76.485 112.005 76.1325Q112.60499999999999 75.78 113.44499999999998 75.78H113.93999999999998V77.325H113.23499999999999Q112.39499999999998 77.325 111.87749999999998 77.8425Q111.35999999999999 78.36 111.35999999999999 79.32V84.0Z  M120.07499999999999 84.0 116.895 75.885H118.74L121.18499999999999 82.5H120.50999999999999L122.95499999999998 75.885H124.81499999999998L121.61999999999999 84.0Z M129.885 84.18Q128.715 84.18 127.7475 83.625Q126.77999999999999 83.07 126.20999999999998 82.11Q125.63999999999999 81.15 125.63999999999999 79.935Q125.63999999999999 78.705 126.20999999999998 77.7525Q126.77999999999999 76.8 127.73999999999998 76.2525Q128.7 75.705 129.885 75.705Q131.08499999999998 75.705 132.03749999999997 76.2525Q132.98999999999998 76.8 133.55249999999998 77.7525Q134.11499999999998 78.705 134.11499999999998 79.935Q134.11499999999998 81.165 133.545 82.125Q132.975 83.085 132.015 83.6325Q131.05499999999998 84.18 129.885 84.18ZM129.885 82.605Q130.605 82.605 131.15999999999997 82.26Q131.71499999999997 81.915 132.03749999999997 81.3075Q132.35999999999999 80.7 132.35999999999999 79.935Q132.35999999999999 79.17 132.03749999999997 78.57Q131.71499999999997 77.97 131.15999999999997 77.625Q130.605 77.28 129.885 77.28Q129.17999999999998 77.28 128.61749999999998 77.625Q128.05499999999998 77.97 127.73249999999999 78.57Q127.41 79.17 127.41 79.935Q127.41 80.7 127.73249999999999 81.3075Q128.05499999999998 81.915 128.61749999999998 82.26Q129.17999999999998 82.605 129.885 82.605Z M135.765 84.0V75.885H137.385V77.475L137.18999999999997 77.265Q137.48999999999998 76.5 138.14999999999998 76.10249999999999Q138.80999999999997 75.705 139.67999999999998 75.705Q140.57999999999998 75.705 141.26999999999998 76.095Q141.95999999999998 76.485 142.34999999999997 77.175Q142.73999999999998 77.865 142.73999999999998 78.765V84.0H141.05999999999997V79.215Q141.05999999999997 78.6 140.83499999999998 78.1725Q140.60999999999999 77.745 140.1975 77.5125Q139.78499999999997 77.28 139.26 77.28Q138.73499999999999 77.28 138.3225 77.5125Q137.90999999999997 77.745 137.68499999999997 78.18Q137.45999999999998 78.615 137.45999999999998 79.215V84.0Z  M146.93999999999997 84.0V82.725L149.99999999999997 79.455Q150.89999999999998 78.495 151.41749999999996 77.9025Q151.93499999999997 77.31 152.16749999999996 76.86Q152.39999999999998 76.41 152.39999999999998 75.915Q152.39999999999998 75.105 151.90499999999997 74.6625Q151.40999999999997 74.22 150.62999999999997 74.22Q149.81999999999996 74.22 149.23499999999996 74.67750000000001Q148.64999999999998 75.135 148.42499999999998 76.005L146.86499999999998 75.555Q147.04499999999996 74.67 147.58499999999998 74.0175Q148.12499999999997 73.365 148.91249999999997 73.005Q149.69999999999996 72.645 150.61499999999998 72.645Q151.67999999999998 72.645 152.47499999999997 73.04249999999999Q153.26999999999998 73.44 153.71249999999998 74.145Q154.15499999999997 74.85 154.15499999999997 75.78Q154.15499999999997 76.395 153.92249999999996 76.9725Q153.68999999999997 77.55 153.20999999999998 78.1875Q152.72999999999996 78.825 151.97999999999996 79.62L149.27999999999997 82.5H154.36499999999998V84.0Z M159.64499999999998 84.18Q158.75999999999996 84.18 157.97999999999996 83.8575Q157.19999999999996 83.535 156.62999999999997 82.94999999999999Q156.05999999999997 82.365 155.81999999999996 81.54L157.30499999999998 80.97Q157.58999999999997 81.765 158.23499999999996 82.185Q158.87999999999997 82.605 159.64499999999998 82.605Q160.27499999999998 82.605 160.75499999999997 82.32Q161.23499999999996 82.035 161.51249999999996 81.53999999999999Q161.78999999999996 81.045 161.78999999999996 80.415Q161.78999999999996 79.77 161.51249999999996 79.2825Q161.23499999999996 78.795 160.75499999999997 78.5175Q160.27499999999998 78.24 159.64499999999998 78.24Q159.01499999999996 78.24 158.48999999999995 78.525Q157.96499999999997 78.81 157.72499999999997 79.29L156.29999999999995 78.975L157.16999999999996 72.825H163.12499999999997V74.325H157.85999999999996L158.53499999999997 73.59L157.88999999999996 78.3L157.33499999999998 77.925Q157.78499999999997 77.295 158.42999999999995 77.00999999999999Q159.07499999999996 76.725 159.89999999999998 76.725Q160.99499999999998 76.725 161.81249999999997 77.2125Q162.62999999999997 77.7 163.08749999999998 78.5325Q163.54499999999996 79.365 163.54499999999996 80.415Q163.54499999999996 81.48 163.03499999999997 82.33500000000001Q162.52499999999998 83.19 161.64749999999998 83.685Q160.76999999999998 84.18 159.64499999999998 84.18Z M166.12499999999997 84.0V82.05H167.84999999999997V84.0Z"/>
</svg>
